<svg width="188" height="33" viewBox="0 0 188 33" fill="none" xmlns="http://www.w3.org/2000/svg">
<path d="M25.5547 4.83203C26.4922 4.14193 27.5078 3.70573 28.6016 3.52344L31.1992 28.4844C31.2773 29.5391 31.5508 30.2878 32.0195 30.7305C32.4883 31.1602 33.3346 31.4206 34.5586 31.5117L34.4414 32C32.944 31.9609 31.7786 31.974 30.9453 32.0391C30.112 32.1042 29.2266 32.293 28.2891 32.6055L28.1523 32.3906C28.3997 31.974 28.4714 31.2839 28.3672 30.3203L26.082 7.60547L16.043 32.7617L14.6758 32.1172C14.6237 31.1927 14.2526 29.8841 13.5625 28.1914L4.63672 8.44531L2.35156 29.2852C2.29948 29.7409 2.33203 30.112 2.44922 30.3984C2.57943 30.6719 2.87891 30.9323 3.34766 31.1797C3.82943 31.4141 4.53906 31.6224 5.47656 31.8047L5.39844 32.1562C3.26302 32 1.59635 31.9479 0.398438 32C0.294271 31.8958 0.216146 31.7656 0.164062 31.6094L3.11328 6.04297C2.7487 5.74349 2.29948 5.58724 1.76562 5.57422C1.23177 5.54818 0.723958 5.59375 0.242188 5.71094L0.0078125 5.32031C1.94792 4.22656 3.71875 3.67969 5.32031 3.67969C5.63281 4.38281 7.38411 8.28906 10.5742 15.3984C13.7773 22.5078 15.6784 26.694 16.2773 27.957L25.5547 4.83203ZM57.4297 26.5508C57.4297 27.4232 57.4688 28.1523 57.5469 28.7383C57.638 29.3112 57.7878 29.7734 57.9961 30.125C58.2174 30.4766 58.5169 30.7305 58.8945 30.8867C59.2721 31.0299 59.6693 31.1016 60.0859 31.1016C60.5026 31.1016 60.763 31.0951 60.8672 31.082L60.9648 31.4336C58.8164 32.0716 56.8372 32.3906 55.0273 32.3906C54.7669 31.6875 54.6367 30.9453 54.6367 30.1641V29.2461C53.9466 29.8581 53.3021 30.3854 52.7031 30.8281C52.1172 31.2708 51.5378 31.6419 50.9648 31.9414C50.3919 32.2279 49.806 32.4427 49.207 32.5859C48.6081 32.7292 47.9635 32.8008 47.2734 32.8008C46.4922 32.8008 45.7109 32.7096 44.9297 32.5273C44.1615 32.3451 43.4648 32.0195 42.8398 31.5508C42.2148 31.082 41.707 30.444 41.3164 29.6367C40.9388 28.8294 40.75 27.8008 40.75 26.5508V14.4805C40.75 13.9596 40.5286 13.5625 40.0859 13.2891C39.6562 13.0156 39.0117 12.7617 38.1523 12.5273L38.3086 12.0391C39.0638 12.1953 40.0404 12.2734 41.2383 12.2734C41.9805 12.2734 42.8464 12.1693 43.8359 11.9609L43.9531 12.1562C43.6927 12.5599 43.5625 13.2565 43.5625 14.2461V25.8477C43.5625 26.9284 43.6862 27.8203 43.9336 28.5234C44.181 29.2135 44.513 29.7604 44.9297 30.1641C45.3464 30.5677 45.8346 30.8477 46.3945 31.0039C46.9544 31.1471 47.5469 31.2188 48.1719 31.2188C48.7578 31.2188 49.2982 31.1602 49.793 31.043C50.3008 30.9128 50.8086 30.7174 51.3164 30.457C51.8242 30.1836 52.3451 29.8385 52.8789 29.4219C53.4128 28.9922 53.9987 28.4779 54.6367 27.8789V14.9688C54.6367 14.5651 54.5977 14.2396 54.5195 13.9922C54.4544 13.7318 54.3177 13.5169 54.1094 13.3477C53.9141 13.1654 53.6276 13.0091 53.25 12.8789C52.8724 12.7487 52.3776 12.6055 51.7656 12.4492L51.9219 11.9609C52.6641 12.0651 53.3021 12.1432 53.8359 12.1953C54.3698 12.2474 54.7995 12.2734 55.125 12.2734C55.8672 12.2734 56.7331 12.1693 57.7227 11.9609L57.8398 12.1562C57.5664 12.5469 57.4297 13.2435 57.4297 14.2461V26.5508ZM70.1055 28.4844C70.1055 29.513 70.3464 30.2747 70.8281 30.7695C71.3099 31.2643 72.1628 31.6224 73.3867 31.8438L73.2305 32.3125C71.7331 32.1042 70.5742 32 69.7539 32C68.9466 32 68.0352 32.1042 67.0195 32.3125L66.9023 32.1172C67.1628 31.7396 67.293 31.0495 67.293 30.0469V6.64844C67.293 4.79948 67.0716 3.5625 66.6289 2.9375C66.1992 2.29948 65.2747 2.02604 63.8555 2.11719L63.7773 1.76562C65.9258 1.1276 67.8984 0.808594 69.6953 0.808594C69.9688 1.48568 70.1055 2.22786 70.1055 3.03516V28.4844ZM82.293 26.6094C82.293 28.3802 82.4883 29.6042 82.8789 30.2812C83.2695 30.9453 83.901 31.2773 84.7734 31.2773C85.724 31.2773 86.8828 30.9193 88.25 30.2031L88.8555 31.043C86.707 32.2148 84.9492 32.8008 83.582 32.8008C82.8529 32.8008 82.2604 32.7357 81.8047 32.6055C81.349 32.4753 80.9323 32.2214 80.5547 31.8438C80.1771 31.4661 79.9036 30.9128 79.7344 30.1836C79.5781 29.4414 79.5 28.4844 79.5 27.3125V14.0703L76.5703 14.2461V12.9961C77.599 12.7747 78.5755 12.6315 79.5 12.5664V9.79297C80.6068 9.16797 81.5117 8.27604 82.2148 7.11719L82.8203 7.35156C82.599 7.8724 82.4557 8.46484 82.3906 9.12891C82.3255 9.77995 82.293 10.8867 82.293 12.4492H89.0117V13.1328C88.4648 13.3542 87.9115 13.543 87.3516 13.6992C86.7917 13.8424 86.2122 13.9141 85.6133 13.9141H82.293V26.6094ZM94.5195 17.5273C94.5195 15.6784 94.2982 14.4414 93.8555 13.8164C93.4258 13.1784 92.5013 12.9049 91.082 12.9961L91.0039 12.6445C93.1523 12.0065 95.125 11.6875 96.9219 11.6875C97.1953 12.3646 97.332 13.1068 97.332 13.9141V28.4844C97.332 29.513 97.5729 30.2747 98.0547 30.7695C98.5365 31.2643 99.3893 31.6224 100.613 31.8438L100.457 32.3125C98.9596 32.1042 97.8008 32 96.9805 32C96.1732 32 95.2617 32.1042 94.2461 32.3125L94.1289 32.1172C94.3893 31.7396 94.5195 31.0495 94.5195 30.0469V17.5273ZM92.5273 4.44141C93.7643 3.72526 95.1641 3.1263 96.7266 2.64453C96.7266 3.72526 96.9023 4.79297 97.2539 5.84766L97 6.19922C95.763 6.27734 94.474 6.6224 93.1328 7.23438C92.8073 6.33594 92.6055 5.40495 92.5273 4.44141ZM102.449 3.79688C104.35 3.6276 106.193 3.51042 107.977 3.44531C109.76 3.36719 111.525 3.32812 113.27 3.32812C115.014 3.32812 116.909 3.3737 118.953 3.46484C120.997 3.54297 123.23 3.66667 125.652 3.83594L125.887 4.24609L124.051 8.99219L123.406 8.79688C123.497 8.34115 123.562 7.91797 123.602 7.52734C123.654 7.1237 123.68 6.74609 123.68 6.39453C123.68 5.91276 123.641 5.47656 123.562 5.08594C121.909 4.98177 120.418 4.90365 119.09 4.85156C117.775 4.79948 116.603 4.76693 115.574 4.75391V28.4844C115.574 29.0182 115.62 29.474 115.711 29.8516C115.815 30.2292 115.984 30.5482 116.219 30.8086C116.453 31.069 116.766 31.2839 117.156 31.4531C117.547 31.6094 118.042 31.7396 118.641 31.8438L118.484 32.3125C117.703 32.2083 117.026 32.1302 116.453 32.0781C115.88 32.026 115.398 32 115.008 32C114.643 32 114.233 32.026 113.777 32.0781C113.335 32.1302 112.84 32.2083 112.293 32.3125L112.176 32.1172C112.436 31.7396 112.566 31.0495 112.566 30.0469V4.75391C111.577 4.76693 110.418 4.79948 109.09 4.85156C107.762 4.90365 106.245 4.98177 104.539 5.08594C104.461 5.51562 104.422 5.97135 104.422 6.45312C104.422 7.14323 104.513 7.92448 104.695 8.79688L104.051 8.99219L102.215 4.24609L102.449 3.79688ZM143.289 29.793C143.289 30.0143 143.335 30.2227 143.426 30.418C143.53 30.6003 143.647 30.7565 143.777 30.8867C143.921 31.0039 144.122 31.1211 144.383 31.2383C144.643 31.3555 144.871 31.4466 145.066 31.5117C145.262 31.5768 145.535 31.6615 145.887 31.7656L145.73 32.2344C144.897 32.0781 144.07 32 143.25 32C142.221 32 141.206 32.1042 140.203 32.3125L140.086 32.1172C140.359 31.7396 140.496 31.0495 140.496 30.0469V28.7578C139.845 29.9688 138.829 30.9453 137.449 31.6875C136.082 32.4297 134.695 32.8008 133.289 32.8008C131.792 32.8008 130.581 32.4167 129.656 31.6484C128.745 30.8672 128.289 29.7148 128.289 28.1914C128.289 27.2018 128.491 26.3229 128.895 25.5547C129.311 24.7734 129.858 24.1159 130.535 23.582C131.225 23.0352 132.104 22.5534 133.172 22.1367C134.253 21.7201 135.359 21.3815 136.492 21.1211C137.638 20.8607 138.973 20.6198 140.496 20.3984V18.6016C140.496 15.0208 139.083 13.2305 136.258 13.2305C135.346 13.2305 134.227 13.4583 132.898 13.9141C131.583 14.3568 130.477 14.9427 129.578 15.6719L128.777 14.7539C129.91 13.8555 131.251 13.1133 132.801 12.5273C134.363 11.9414 135.822 11.6484 137.176 11.6484C137.775 11.6484 138.341 11.707 138.875 11.8242C139.422 11.9284 139.969 12.1302 140.516 12.4297C141.076 12.7161 141.551 13.0872 141.941 13.543C142.345 13.9857 142.671 14.5846 142.918 15.3398C143.165 16.082 143.289 16.9284 143.289 17.8789V29.793ZM134.207 31.3164C135.34 31.3164 136.525 30.9453 137.762 30.2031C138.999 29.4479 139.91 28.5104 140.496 27.3906V21.4336C137.163 21.9154 134.78 22.6576 133.348 23.6602C131.928 24.6497 131.219 26.0951 131.219 27.9961C131.219 29.1549 131.466 30.0013 131.961 30.5352C132.456 31.056 133.204 31.3164 134.207 31.3164ZM163.152 27.4492C163.152 28.3867 162.964 29.194 162.586 29.8711C162.208 30.5482 161.701 31.1081 161.062 31.5508C160.438 31.9805 159.702 32.293 158.855 32.4883C158.022 32.6966 157.143 32.8008 156.219 32.8008C153.979 32.8008 151.876 32.332 149.91 31.3945C150.158 30.5352 150.405 29.7409 150.652 29.0117C150.9 28.2695 151.154 27.5859 151.414 26.9609L151.98 27.1562C151.863 27.7292 151.805 28.2826 151.805 28.8164C151.805 29.3372 151.824 29.8125 151.863 30.2422C152.267 30.4505 152.645 30.6328 152.996 30.7891C153.348 30.9323 153.699 31.056 154.051 31.1602C154.402 31.2513 154.78 31.3229 155.184 31.375C155.587 31.4141 156.056 31.4336 156.59 31.4336C157.384 31.4336 158.042 31.3815 158.562 31.2773C159.083 31.1732 159.487 30.9974 159.773 30.75C160.073 30.4896 160.281 30.151 160.398 29.7344C160.516 29.3047 160.574 28.7773 160.574 28.1523C160.574 27.6706 160.49 27.2214 160.32 26.8047C160.164 26.375 159.884 25.9518 159.48 25.5352C159.09 25.1185 158.562 24.6888 157.898 24.2461C157.247 23.7904 156.434 23.2956 155.457 22.7617C153.882 21.8242 152.69 20.8932 151.883 19.9688C151.076 19.0312 150.672 18.0286 150.672 16.9609C150.672 16.1146 150.848 15.3659 151.199 14.7148C151.551 14.0508 152.026 13.4974 152.625 13.0547C153.237 12.599 153.947 12.2604 154.754 12.0391C155.561 11.8047 156.414 11.6875 157.312 11.6875C157.768 11.6875 158.243 11.7201 158.738 11.7852C159.246 11.8503 159.734 11.9479 160.203 12.0781C160.672 12.1953 161.108 12.3451 161.512 12.5273C161.928 12.6966 162.286 12.8919 162.586 13.1133C162.169 14.819 161.661 16.3164 161.062 17.6055L160.496 17.3906C160.522 17.013 160.542 16.5508 160.555 16.0039C160.568 15.444 160.574 14.7865 160.574 14.0312C159.728 13.3672 158.556 13.0352 157.059 13.0352C156.316 13.0352 155.685 13.0807 155.164 13.1719C154.656 13.263 154.246 13.4193 153.934 13.6406C153.621 13.862 153.393 14.168 153.25 14.5586C153.12 14.9362 153.055 15.418 153.055 16.0039C153.055 16.4336 153.113 16.8372 153.23 17.2148C153.348 17.5794 153.556 17.944 153.855 18.3086C154.155 18.6602 154.559 19.0247 155.066 19.4023C155.587 19.7669 156.251 20.1641 157.059 20.5938C158.322 21.2839 159.344 21.8893 160.125 22.4102C160.919 22.931 161.538 23.4453 161.98 23.9531C162.436 24.4479 162.742 24.9688 162.898 25.5156C163.068 26.0625 163.152 26.707 163.152 27.4492ZM169.871 6.64844C169.871 4.79948 169.65 3.5625 169.207 2.9375C168.777 2.29948 167.853 2.02604 166.434 2.11719L166.355 1.76562C168.504 1.1276 170.477 0.808594 172.273 0.808594C172.547 1.48568 172.684 2.22786 172.684 3.03516V28.4844C172.684 29.513 172.924 30.2747 173.406 30.7695C173.888 31.2643 174.741 31.6224 175.965 31.8438L175.809 32.3125C174.311 32.1042 173.107 32 172.195 32C171.479 32 170.613 32.1042 169.598 32.3125L169.48 32.1172C169.741 31.7396 169.871 31.0495 169.871 30.0469V6.64844ZM181.473 31.082L174.246 21.5703V21.1211L181.473 13.8359C181.837 13.4323 181.701 13.1263 181.062 12.918C180.49 12.7227 179.669 12.6706 178.602 12.7617L178.484 12.2734C180.151 11.9349 182.085 11.7396 184.285 11.6875L184.598 12.2734L176.473 20.3984C181.525 26.7396 184.344 30.125 184.93 30.5547C185.516 30.9714 186.245 31.2773 187.117 31.4727L187.078 32.0781C184.943 31.9219 183.328 32 182.234 32.3125L181.961 32.1562C181.987 31.8698 181.824 31.5117 181.473 31.082Z" fill="black" fill-opacity="0.88"/>
<path d="M25.5547 4.83203L24.9619 4.02669L24.7326 4.19547L24.6266 4.45969L25.5547 4.83203ZM28.6016 3.52344L29.5962 3.41993L29.4861 2.36222L28.4372 2.53704L28.6016 3.52344ZM31.1992 28.4844L32.1965 28.4105L32.1954 28.3957L32.1938 28.3809L31.1992 28.4844ZM32.0195 30.7305L31.3329 31.4575L31.3383 31.4626L31.3438 31.4676L32.0195 30.7305ZM34.5586 31.5117L35.531 31.7451L35.8054 30.6018L34.6329 30.5145L34.5586 31.5117ZM34.4414 32L34.4153 32.9997L35.2248 33.0208L35.4138 32.2334L34.4414 32ZM28.2891 32.6055L27.4454 33.1423L27.8646 33.8011L28.6053 33.5542L28.2891 32.6055ZM28.1523 32.3906L27.2925 31.8801L26.9786 32.4088L27.3087 32.9275L28.1523 32.3906ZM28.3672 30.3203L27.3722 30.4204L27.373 30.4278L28.3672 30.3203ZM26.082 7.60547L27.077 7.50537L25.1533 7.23482L26.082 7.60547ZM16.043 32.7617L15.6165 33.6662L16.5778 34.1194L16.9717 33.1324L16.043 32.7617ZM14.6758 32.1172L13.6774 32.1734L13.7109 32.7678L14.2494 33.0217L14.6758 32.1172ZM13.5625 28.1914L14.4885 27.8139L14.4814 27.7966L14.4737 27.7795L13.5625 28.1914ZM4.63672 8.44531L5.54795 8.03341L4.04136 4.70046L3.64268 8.33631L4.63672 8.44531ZM2.35156 29.2852L3.34511 29.3987L3.3456 29.3942L2.35156 29.2852ZM2.44922 30.3984L1.52367 30.7771L1.5343 30.803L1.54636 30.8284L2.44922 30.3984ZM3.34766 31.1797L2.8809 32.0641L2.89542 32.0717L2.91019 32.0789L3.34766 31.1797ZM5.47656 31.8047L6.45275 32.0216L6.67553 31.0191L5.66743 30.8231L5.47656 31.8047ZM5.39844 32.1562L5.32546 33.1536L6.18719 33.2166L6.37462 32.3732L5.39844 32.1562ZM0.398438 32L-0.308669 32.7071L0.00238821 33.0182L0.441875 32.9991L0.398438 32ZM0.164062 31.6094L-0.82935 31.4948L-0.854771 31.7152L-0.784621 31.9256L0.164062 31.6094ZM3.11328 6.04297L4.10669 6.15756L4.16915 5.61617L3.74802 5.27024L3.11328 6.04297ZM1.76562 5.57422L1.7169 6.57303L1.72907 6.57362L1.74124 6.57392L1.76562 5.57422ZM0.242188 5.71094L-0.615305 6.22543L-0.236627 6.85656L0.478539 6.68261L0.242188 5.71094ZM0.0078125 5.32031L-0.483281 4.44921L-1.3783 4.95378L-0.84968 5.83481L0.0078125 5.32031ZM5.32031 3.67969L6.23412 3.27355L5.97019 2.67969H5.32031V3.67969ZM10.5742 15.3984L9.66186 15.8078L9.66248 15.8092L10.5742 15.3984ZM16.2773 27.957L15.3738 28.3855L16.3538 30.4521L17.2054 28.3294L16.2773 27.957ZM26.1475 5.63737C26.9649 5.03567 27.835 4.66499 28.766 4.50983L28.4372 2.53704C27.1806 2.74647 26.0195 3.24819 24.9619 4.02669L26.1475 5.63737ZM27.6069 3.62695L30.2046 28.5879L32.1938 28.3809L29.5962 3.41993L27.6069 3.62695ZM30.202 28.5582C30.2874 29.7121 30.5972 30.7626 31.3329 31.4575L32.7062 30.0035C32.5044 29.8129 32.2673 29.3661 32.1965 28.4105L30.202 28.5582ZM31.3438 31.4676C32.074 32.1369 33.2147 32.4144 34.4843 32.509L34.6329 30.5145C33.4545 30.4267 32.9026 30.1834 32.6953 29.9933L31.3438 31.4676ZM33.5862 31.2783L33.469 31.7666L35.4138 32.2334L35.531 31.7451L33.5862 31.2783ZM34.4675 31.0003C32.9579 30.961 31.7522 30.973 30.8674 31.0421L31.0232 33.036C31.8051 32.9749 32.9301 32.9609 34.4153 32.9997L34.4675 31.0003ZM30.8674 31.0421C29.9398 31.1146 28.9739 31.3231 27.9728 31.6568L28.6053 33.5542C29.4792 33.2629 30.2841 33.0938 31.0232 33.036L30.8674 31.0421ZM29.1327 32.0686L28.996 31.8537L27.3087 32.9275L27.4454 33.1423L29.1327 32.0686ZM29.0122 32.9012C29.4361 32.1872 29.4694 31.2115 29.3614 30.2128L27.373 30.4278C27.4733 31.3562 27.3633 31.7607 27.2925 31.8801L29.0122 32.9012ZM29.3622 30.2202L27.077 7.50537L25.0871 7.70557L27.3722 30.4204L29.3622 30.2202ZM25.1533 7.23482L15.1142 32.3911L16.9717 33.1324L27.0108 7.97611L25.1533 7.23482ZM16.4694 31.8572L15.1022 31.2127L14.2494 33.0217L15.6165 33.6662L16.4694 31.8572ZM15.6742 32.0609C15.6124 30.9645 15.1879 29.5294 14.4885 27.8139L12.6365 28.5689C13.3173 30.2388 13.635 31.4209 13.6774 32.1734L15.6742 32.0609ZM14.4737 27.7795L5.54795 8.03341L3.72549 8.85721L12.6513 28.6033L14.4737 27.7795ZM3.64268 8.33631L1.35752 29.1762L3.3456 29.3942L5.63076 8.55431L3.64268 8.33631ZM1.35803 29.1716C1.29537 29.7199 1.31937 30.2777 1.52367 30.7771L3.37477 30.0198C3.3447 29.9463 3.30359 29.7619 3.3451 29.3987L1.35803 29.1716ZM1.54636 30.8284C1.81622 31.3951 2.34885 31.7833 2.8809 32.0641L3.81441 30.2953C3.62683 30.1963 3.50385 30.1105 3.42766 30.0442C3.3509 29.9775 3.34285 29.9491 3.35208 29.9685L1.54636 30.8284ZM2.91019 32.0789C3.50852 32.37 4.31824 32.5982 5.28569 32.7863L5.66743 30.8231C4.75988 30.6466 4.15033 30.4581 3.78512 30.2805L2.91019 32.0789ZM4.50038 31.5878L4.42225 31.9393L6.37462 32.3732L6.45275 32.0216L4.50038 31.5878ZM5.47141 31.1589C3.32225 31.0017 1.61057 30.9464 0.355 31.0009L0.441875 32.9991C1.58214 32.9495 3.20379 32.9983 5.32546 33.1536L5.47141 31.1589ZM1.10554 31.2929C1.10905 31.2964 1.11208 31.2999 1.11455 31.3031C1.11701 31.3062 1.11852 31.3086 1.11921 31.3097C1.1207 31.3122 1.11764 31.3078 1.11275 31.2931L-0.784621 31.9256C-0.689302 32.2116 -0.534999 32.4808 -0.308669 32.7071L1.10554 31.2929ZM1.15747 31.724L4.10669 6.15756L2.11987 5.92837L-0.82935 31.4948L1.15747 31.724ZM3.74802 5.27024C3.18853 4.81066 2.516 4.59222 1.79001 4.57452L1.74124 6.57392C2.08296 6.58226 2.30887 6.67632 2.47854 6.8157L3.74802 5.27024ZM1.81435 4.57541C1.1921 4.54505 0.587812 4.59771 0.00583592 4.73927L0.478539 6.68261C0.860105 6.58979 1.27144 6.5513 1.7169 6.57303L1.81435 4.57541ZM1.09968 5.19644L0.865305 4.80582L-0.84968 5.83481L-0.615305 6.22543L1.09968 5.19644ZM0.498906 6.19142C2.34478 5.15079 3.94505 4.67969 5.32031 4.67969V2.67969C3.49245 2.67969 1.55105 3.30233 -0.483281 4.44921L0.498906 6.19142ZM4.4065 4.08583C4.71995 4.79109 6.47239 8.69988 9.66186 15.8078L11.4866 14.989C8.29583 7.87825 6.54567 3.97454 6.23412 3.27355L4.4065 4.08583ZM9.66248 15.8092C12.8633 22.9134 14.7695 27.1113 15.3738 28.3855L17.1809 27.5285C16.5872 26.2767 14.6914 22.1022 11.486 14.9877L9.66248 15.8092ZM17.2054 28.3294L26.4828 5.20437L24.6266 4.45969L15.3492 27.5847L17.2054 28.3294ZM57.5469 28.7383L56.5556 28.8704L56.5573 28.8829L56.5593 28.8954L57.5469 28.7383ZM57.9961 30.125L57.1358 30.6348L57.1427 30.6464L57.1499 30.6578L57.9961 30.125ZM58.8945 30.8867L58.5122 31.8107L58.5259 31.8164L58.5399 31.8217L58.8945 30.8867ZM60.8672 31.082L61.8307 30.8144L61.5997 29.9827L60.7432 30.0898L60.8672 31.082ZM60.9648 31.4336L61.2495 32.3922L62.1913 32.1125L61.9284 31.1659L60.9648 31.4336ZM55.0273 32.3906L54.0896 32.7379L54.3313 33.3906H55.0273V32.3906ZM54.6367 29.2461H55.6367V27.0227L53.9732 28.4979L54.6367 29.2461ZM52.7031 30.8281L52.1087 30.0239L52.1003 30.0303L52.7031 30.8281ZM50.9648 31.9414L51.4121 32.8358L51.4201 32.8318L51.4281 32.8276L50.9648 31.9414ZM49.207 32.5859L48.9745 31.6134L49.207 32.5859ZM44.9297 32.5273L44.6988 33.5003L44.7025 33.5012L44.9297 32.5273ZM41.3164 29.6367L40.4105 30.0604L40.4162 30.0723L41.3164 29.6367ZM40.0859 13.2891L39.549 14.1328L39.5604 14.1399L40.0859 13.2891ZM38.1523 12.5273L37.1999 12.2226L36.8816 13.2173L37.8892 13.4921L38.1523 12.5273ZM38.3086 12.0391L38.5112 11.0598L37.6303 10.8776L37.3562 11.7343L38.3086 12.0391ZM43.8359 11.9609L44.6934 11.4464L44.327 10.8356L43.6299 10.9824L43.8359 11.9609ZM43.9531 12.1562L44.7934 12.6984L45.1308 12.1754L44.8106 11.6418L43.9531 12.1562ZM43.9336 28.5234L42.9903 28.8553L42.9923 28.8609L43.9336 28.5234ZM46.3945 31.0039L46.1257 31.9671L46.1362 31.97L46.1467 31.9727L46.3945 31.0039ZM49.793 31.043L50.0234 32.016L50.0324 32.0139L50.0413 32.0116L49.793 31.043ZM51.3164 30.457L51.7727 31.3468L51.7817 31.3423L51.7905 31.3375L51.3164 30.457ZM52.8789 29.4219L53.4942 30.2102L53.5001 30.2056L53.5059 30.2009L52.8789 29.4219ZM54.6367 27.8789L55.3212 28.608L55.6367 28.3117V27.8789H54.6367ZM54.5195 13.9922L53.5494 14.2347L53.5568 14.2643L53.5659 14.2933L54.5195 13.9922ZM54.1094 13.3477L53.4271 14.0787L53.4521 14.1021L53.4788 14.1238L54.1094 13.3477ZM51.7656 12.4492L50.8132 12.1444L50.4897 13.1555L51.5182 13.4181L51.7656 12.4492ZM51.9219 11.9609L52.0609 10.9706L51.2263 10.8535L50.9695 11.6562L51.9219 11.9609ZM57.7227 11.9609L58.5801 11.4464L58.2137 10.8356L57.5166 10.9824L57.7227 11.9609ZM57.8398 12.1562L58.6591 12.7297L59.0312 12.1981L58.6973 11.6418L57.8398 12.1562ZM56.4297 26.5508C56.4297 27.4487 56.4696 28.2254 56.5556 28.8704L58.5381 28.6061C58.4679 28.0793 58.4297 27.3977 58.4297 26.5508H56.4297ZM56.5593 28.8954C56.6626 29.5447 56.8423 30.1395 57.1358 30.6348L58.8564 29.6152C58.7332 29.4074 58.6135 29.0777 58.5345 28.5812L56.5593 28.8954ZM57.1499 30.6578C57.4796 31.1816 57.9398 31.5739 58.5122 31.8107L59.2769 29.9627C59.0941 29.8871 58.9553 29.7716 58.8423 29.5922L57.1499 30.6578ZM58.5399 31.8217C59.0344 32.0093 59.552 32.1016 60.0859 32.1016V30.1016C59.7865 30.1016 59.5099 30.0506 59.2492 29.9517L58.5399 31.8217ZM60.0859 32.1016C60.4796 32.1016 60.8113 32.0968 60.9912 32.0743L60.7432 30.0898C60.746 30.0894 60.7001 30.0937 60.5688 30.097C60.4503 30.1 60.2902 30.1016 60.0859 30.1016V32.1016ZM59.9037 31.3497L60.0013 31.7012L61.9284 31.1659L61.8307 30.8144L59.9037 31.3497ZM60.6802 30.475C58.6031 31.0918 56.7211 31.3906 55.0273 31.3906V33.3906C56.9534 33.3906 59.0297 33.0514 61.2495 32.3922L60.6802 30.475ZM55.9651 32.0433C55.7476 31.456 55.6367 30.8318 55.6367 30.1641H53.6367C53.6367 31.0588 53.7863 31.919 54.0896 32.7379L55.9651 32.0433ZM55.6367 30.1641V29.2461H53.6367V30.1641H55.6367ZM53.9732 28.4979C53.3003 29.0946 52.679 29.6024 52.1087 30.0239L53.2975 31.6323C53.9251 31.1684 54.5929 30.6215 55.3002 29.9943L53.9732 28.4979ZM52.1003 30.0303C51.5526 30.4441 51.0196 30.7844 50.5016 31.0552L51.4281 32.8276C52.056 32.4994 52.6818 32.0976 53.306 31.626L52.1003 30.0303ZM50.5176 31.047C50.0103 31.3006 49.4962 31.4886 48.9745 31.6134L49.4396 33.5585C50.1158 33.3968 50.7736 33.1551 51.4121 32.8358L50.5176 31.047ZM48.9745 31.6134C48.4602 31.7363 47.8945 31.8008 47.2734 31.8008V33.8008C48.0326 33.8008 48.756 33.722 49.4396 33.5585L48.9745 31.6134ZM47.2734 31.8008C46.5707 31.8008 45.8657 31.7189 45.1569 31.5535L44.7025 33.5012C45.5562 33.7004 46.4137 33.8008 47.2734 33.8008V31.8008ZM45.1606 31.5544C44.5245 31.4034 43.9538 31.1362 43.4398 30.7508L42.2398 32.3508C42.9759 32.9028 43.7984 33.2867 44.6988 33.5003L45.1606 31.5544ZM43.4398 30.7508C42.9603 30.3911 42.548 29.8861 42.2166 29.2012L40.4162 30.0723C40.8661 31.0019 41.4694 31.773 42.2398 32.3508L43.4398 30.7508ZM42.2222 29.213C41.9264 28.5806 41.75 27.7095 41.75 26.5508H39.75C39.75 27.8921 39.9512 29.0783 40.4106 30.0604L42.2222 29.213ZM41.75 26.5508V14.4805H39.75V26.5508H41.75ZM41.75 14.4805C41.75 13.6134 41.3494 12.8941 40.6114 12.4383L39.5604 14.1399C39.7079 14.2309 39.75 14.3059 39.75 14.4805H41.75ZM40.6228 12.4454C40.068 12.0923 39.3107 11.8067 38.4155 11.5626L37.8892 13.4921C38.7127 13.7167 39.2445 13.9389 39.5491 14.1327L40.6228 12.4454ZM39.1048 12.8321L39.261 12.3438L37.3562 11.7343L37.1999 12.2226L39.1048 12.8321ZM38.106 13.0183C38.9538 13.1937 40.0052 13.2734 41.2383 13.2734V11.2734C40.0755 11.2734 39.1738 11.1969 38.5112 11.0598L38.106 13.0183ZM41.2383 13.2734C42.0695 13.2734 43.0072 13.1573 44.0419 12.9395L43.6299 10.9824C42.6855 11.1812 41.8915 11.2734 41.2383 11.2734V13.2734ZM42.9784 12.4754L43.0956 12.6707L44.8106 11.6418L44.6934 11.4464L42.9784 12.4754ZM43.1128 11.6141C42.6849 12.2775 42.5625 13.2297 42.5625 14.2461H44.5625C44.5625 13.2833 44.7005 12.8423 44.7934 12.6984L43.1128 11.6141ZM42.5625 14.2461V25.8477H44.5625V14.2461H42.5625ZM42.5625 25.8477C42.5625 26.9951 42.6926 28.0093 42.9903 28.8553L44.8769 28.1915C44.6798 27.6314 44.5625 26.8616 44.5625 25.8477H42.5625ZM42.9923 28.8609C43.278 29.6581 43.6822 30.3479 44.2339 30.8823L45.6255 29.4458C45.3438 29.1729 45.0839 28.769 44.8749 28.186L42.9923 28.8609ZM44.2339 30.8823C44.7705 31.4021 45.4057 31.7662 46.1257 31.9671L46.6633 30.0407C46.2636 29.9292 45.9222 29.7333 45.6255 29.4458L44.2339 30.8823ZM46.1467 31.9727C46.7939 32.1383 47.47 32.2188 48.1719 32.2188V30.2188C47.6237 30.2188 47.115 30.156 46.6424 30.0351L46.1467 31.9727ZM48.1719 32.2188C48.8239 32.2188 49.4427 32.1536 50.0234 32.016L49.5625 30.0699C49.1536 30.1667 48.6917 30.2188 48.1719 30.2188V32.2188ZM50.0413 32.0116C50.6272 31.8614 51.2045 31.6382 51.7727 31.3468L50.8601 29.5672C50.4127 29.7967 49.9743 29.9641 49.5446 30.0743L50.0413 32.0116ZM51.7905 31.3375C52.3556 31.0332 52.9234 30.6557 53.4942 30.2102L52.2636 28.6336C51.7667 29.0214 51.2929 29.3339 50.8423 29.5766L51.7905 31.3375ZM53.5059 30.2009C54.0641 29.7516 54.6694 29.2198 55.3212 28.608L53.9523 27.1498C53.328 27.7359 52.7615 28.2327 52.2519 28.6429L53.5059 30.2009ZM55.6367 27.8789V14.9688H53.6367V27.8789H55.6367ZM55.6367 14.9688C55.6367 14.5131 55.5941 14.0743 55.4731 13.6911L53.5659 14.2933C53.6012 14.4049 53.6367 14.6171 53.6367 14.9688H55.6367ZM55.4897 13.7497C55.3721 13.2793 55.1162 12.8773 54.74 12.5715L53.4788 14.1238C53.5192 14.1566 53.5368 14.1842 53.5494 14.2347L55.4897 13.7497ZM54.7917 12.6166C54.4561 12.3034 54.0264 12.0888 53.576 11.9335L52.924 13.8243C53.2288 13.9294 53.372 14.0273 53.4271 14.0787L54.7917 12.6166ZM53.576 11.9335C53.1622 11.7908 52.6382 11.6399 52.013 11.4803L51.5182 13.4181C52.117 13.571 52.5826 13.7066 52.924 13.8243L53.576 11.9335ZM52.718 12.754L52.8743 12.2657L50.9695 11.6562L50.8132 12.1444L52.718 12.754ZM51.7829 12.9512C52.534 13.0567 53.1867 13.1367 53.7388 13.1906L53.933 11.2C53.4174 11.1497 52.7941 11.0736 52.0609 10.9706L51.7829 12.9512ZM53.7388 13.1906C54.2872 13.2441 54.7531 13.2734 55.125 13.2734V11.2734C54.8459 11.2734 54.4524 11.2507 53.933 11.2L53.7388 13.1906ZM55.125 13.2734C55.9562 13.2734 56.8939 13.1573 57.9287 12.9395L57.5166 10.9824C56.5722 11.1812 55.7782 11.2734 55.125 11.2734V13.2734ZM56.8652 12.4754L56.9824 12.6707L58.6973 11.6418L58.5801 11.4464L56.8652 12.4754ZM57.0206 11.5828C56.5561 12.2464 56.4297 13.2215 56.4297 14.2461H58.4297C58.4297 13.2654 58.5767 12.8473 58.6591 12.7297L57.0206 11.5828ZM56.4297 14.2461V26.5508H58.4297V14.2461H56.4297ZM73.3867 31.8438L74.3354 32.16L74.7004 31.0651L73.5647 30.8597L73.3867 31.8438ZM73.2305 32.3125L73.0927 33.303L73.9162 33.4175L74.1792 32.6287L73.2305 32.3125ZM67.0195 32.3125L66.162 32.827L66.5265 33.4345L67.2205 33.2921L67.0195 32.3125ZM66.9023 32.1172L66.0791 31.5495L65.7136 32.0795L66.0449 32.6317L66.9023 32.1172ZM66.6289 2.9375L65.7995 3.4961L65.8061 3.50589L65.8129 3.51552L66.6289 2.9375ZM63.8555 2.11719L62.8793 2.33412L63.065 3.17001L63.9196 3.11513L63.8555 2.11719ZM63.7773 1.76562L63.4927 0.807003L62.5989 1.07242L62.8012 1.98256L63.7773 1.76562ZM69.6953 0.808594L70.6226 0.434131L70.3699 -0.191406H69.6953V0.808594ZM69.1055 28.4844C69.1055 29.6477 69.376 30.7116 70.1117 31.4671L71.5446 30.0719C71.3168 29.8379 71.1055 29.3783 71.1055 28.4844H69.1055ZM70.1117 31.4671C70.8151 32.1896 71.9234 32.5953 73.2088 32.8278L73.5647 30.8597C72.4021 30.6495 71.8047 30.3391 71.5446 30.0719L70.1117 31.4671ZM72.438 31.5275L72.2818 31.9963L74.1792 32.6287L74.3354 32.16L72.438 31.5275ZM73.3683 31.322C71.8564 31.1117 70.6437 31 69.7539 31V33C70.5048 33 71.6097 33.0966 73.0927 33.303L73.3683 31.322ZM69.7539 31C68.8632 31 67.8827 31.1146 66.8186 31.3329L67.2205 33.2921C68.1876 33.0937 69.03 33 69.7539 33V31ZM67.877 31.798L67.7598 31.6027L66.0449 32.6317L66.162 32.827L67.877 31.798ZM67.7256 32.6849C67.9658 32.3366 68.0994 31.9184 68.178 31.5018C68.2583 31.0759 68.293 30.5864 68.293 30.0469H66.293C66.293 30.51 66.2625 30.8668 66.2127 31.131C66.161 31.4045 66.0994 31.5201 66.0791 31.5495L67.7256 32.6849ZM68.293 30.0469V6.64844H66.293V30.0469H68.293ZM68.293 6.64844C68.293 5.68972 68.236 4.85464 68.1113 4.15784C67.9893 3.47618 67.7888 2.84492 67.4449 2.35948L65.8129 3.51552C65.9117 3.65508 66.0432 3.95481 66.1426 4.51013C66.2393 5.05031 66.293 5.7582 66.293 6.64844H68.293ZM67.4583 2.3789C66.7067 1.26283 65.2685 1.02438 63.7914 1.11924L63.9196 3.11513C65.281 3.0277 65.6917 3.33613 65.7995 3.4961L67.4583 2.3789ZM64.8317 1.90026L64.7535 1.54869L62.8012 1.98256L62.8793 2.33412L64.8317 1.90026ZM64.062 2.72425C66.1398 2.1072 68.0152 1.80859 69.6953 1.80859V-0.191406C67.7817 -0.191406 65.7117 0.148012 63.4927 0.807003L64.062 2.72425ZM68.7681 1.18306C68.9886 1.72918 69.1055 2.34264 69.1055 3.03516H71.1055C71.1055 2.11309 70.9489 1.24217 70.6226 0.434131L68.7681 1.18306ZM69.1055 3.03516V28.4844H71.1055V3.03516H69.1055ZM82.8789 30.2812L82.0127 30.781L82.017 30.7883L82.8789 30.2812ZM88.25 30.2031L89.0612 29.6183L88.5541 28.915L87.786 29.3173L88.25 30.2031ZM88.8555 31.043L89.3343 31.9209L90.3297 31.3779L89.6666 30.4582L88.8555 31.043ZM81.8047 32.6055L81.53 33.567L81.8047 32.6055ZM79.7344 30.1836L78.7558 30.3896L78.7579 30.3997L78.7603 30.4097L79.7344 30.1836ZM79.5 14.0703H80.5V13.0085L79.4401 13.0721L79.5 14.0703ZM76.5703 14.2461H75.5703V15.3079L76.6302 15.2443L76.5703 14.2461ZM76.5703 12.9961L76.3599 12.0185L75.5703 12.1884V12.9961H76.5703ZM79.5 12.5664L79.5702 13.5639L80.5 13.4985V12.5664H79.5ZM79.5 9.79297L79.0083 8.92222L78.5 9.20924V9.79297H79.5ZM82.2148 7.11719L82.5758 6.18462L81.7945 5.88217L81.3599 6.59846L82.2148 7.11719ZM82.8203 7.35156L83.7406 7.7427L84.1447 6.79193L83.1813 6.41899L82.8203 7.35156ZM82.3906 9.12891L83.3857 9.22841L83.3859 9.22648L82.3906 9.12891ZM82.293 12.4492H81.293V13.4492H82.293V12.4492ZM89.0117 12.4492H90.0117V11.4492H89.0117V12.4492ZM89.0117 13.1328L89.3869 14.0598L90.0117 13.8069V13.1328H89.0117ZM87.3516 13.6992L87.5994 14.668L87.6099 14.6653L87.6204 14.6624L87.3516 13.6992ZM82.293 13.9141V12.9141H81.293V13.9141H82.293ZM81.293 26.6094C81.293 28.3856 81.477 29.8524 82.0127 30.781L83.7451 29.7815C83.4996 29.356 83.293 28.3748 83.293 26.6094H81.293ZM82.017 30.7883C82.614 31.8033 83.6029 32.2773 84.7734 32.2773V30.2773C84.1992 30.2773 83.925 30.0873 83.7408 29.7742L82.017 30.7883ZM84.7734 32.2773C85.9562 32.2773 87.2831 31.8385 88.714 31.089L87.786 29.3173C86.4825 30.0001 85.4917 30.2773 84.7734 30.2773V32.2773ZM87.4388 30.7879L88.0443 31.6278L89.6666 30.4582L89.0612 29.6183L87.4388 30.7879ZM88.3766 30.1651C86.2758 31.311 84.6968 31.8008 83.582 31.8008V33.8008C85.2016 33.8008 87.1383 33.1187 89.3343 31.9209L88.3766 30.1651ZM83.582 31.8008C82.9016 31.8008 82.4114 31.7388 82.0794 31.6439L81.53 33.567C82.1094 33.7325 82.8042 33.8008 83.582 33.8008V31.8008ZM82.0794 31.6439C81.8069 31.5661 81.5347 31.4096 81.2618 31.1366L79.8476 32.5509C80.3299 33.0331 80.891 33.3844 81.53 33.567L82.0794 31.6439ZM81.2618 31.1366C81.0594 30.9342 80.8517 30.5745 80.7085 29.9575L78.7603 30.4097C78.9556 31.2511 79.2948 31.9981 79.8476 32.5509L81.2618 31.1366ZM80.7129 29.9776C80.5764 29.3293 80.5 28.4482 80.5 27.3125H78.5C78.5 28.5205 78.5798 29.5536 78.7558 30.3896L80.7129 29.9776ZM80.5 27.3125V14.0703H78.5V27.3125H80.5ZM79.4401 13.0721L76.5104 13.2479L76.6302 15.2443L79.5599 15.0685L79.4401 13.0721ZM77.5703 14.2461V12.9961H75.5703V14.2461H77.5703ZM76.7807 13.9737C77.7692 13.761 78.6987 13.6253 79.5702 13.5639L79.4298 11.5689C78.4523 11.6377 77.4287 11.7885 76.3599 12.0185L76.7807 13.9737ZM80.5 12.5664V9.79297H78.5V12.5664H80.5ZM79.9917 10.6637C81.2577 9.94884 82.2839 8.93124 83.0698 7.63591L81.3599 6.59846C80.7396 7.62084 79.9559 8.38709 79.0083 8.92222L79.9917 10.6637ZM81.8538 8.04976L82.4593 8.28413L83.1813 6.41899L82.5758 6.18462L81.8538 8.04976ZM81.9 6.96042C81.6325 7.58973 81.4687 8.28378 81.3954 9.03133L83.3859 9.22648C83.4428 8.64591 83.5654 8.15506 83.7406 7.7427L81.9 6.96042ZM81.3956 9.0294C81.325 9.73509 81.293 10.8863 81.293 12.4492H83.293C83.293 10.8871 83.326 9.82481 83.3857 9.22841L81.3956 9.0294ZM82.293 13.4492H89.0117V11.4492H82.293V13.4492ZM88.0117 12.4492V13.1328H90.0117V12.4492H88.0117ZM88.6365 12.2059C88.1239 12.4134 87.606 12.59 87.0828 12.736L87.6204 14.6624C88.2169 14.4959 88.8058 14.295 89.3869 14.0598L88.6365 12.2059ZM87.1037 12.7304C86.6277 12.8522 86.1317 12.9141 85.6133 12.9141V14.9141C86.2928 14.9141 86.9556 14.8327 87.5994 14.668L87.1037 12.7304ZM85.6133 12.9141H82.293V14.9141H85.6133V12.9141ZM81.293 13.9141V26.6094H83.293V13.9141H81.293ZM93.8555 13.8164L93.026 14.375L93.0326 14.3848L93.0394 14.3944L93.8555 13.8164ZM91.082 12.9961L90.1058 13.213L90.2916 14.0489L91.1461 13.994L91.082 12.9961ZM91.0039 12.6445L90.7192 11.6859L89.8255 11.9513L90.0277 12.8615L91.0039 12.6445ZM96.9219 11.6875L97.8491 11.313L97.5965 10.6875H96.9219V11.6875ZM100.613 31.8438L101.562 32.16L101.927 31.0651L100.791 30.8597L100.613 31.8438ZM100.457 32.3125L100.319 33.303L101.143 33.4175L101.406 32.6287L100.457 32.3125ZM94.2461 32.3125L93.3886 32.827L93.7531 33.4345L94.447 33.2921L94.2461 32.3125ZM94.1289 32.1172L93.3057 31.5495L92.9401 32.0795L93.2714 32.6317L94.1289 32.1172ZM92.5273 4.44141L92.0263 3.57598L91.4796 3.89252L91.5306 4.52222L92.5273 4.44141ZM96.7266 2.64453H97.7266V1.28974L96.4319 1.68892L96.7266 2.64453ZM97.2539 5.84766L98.0646 6.43315L98.3647 6.01765L98.2026 5.53143L97.2539 5.84766ZM97 6.19922L97.063 7.19723L97.5342 7.16747L97.8107 6.78471L97 6.19922ZM93.1328 7.23438L92.1926 7.57502L92.5619 8.5941L93.5479 8.14414L93.1328 7.23438ZM95.5195 17.5273C95.5195 16.5686 95.4626 15.7335 95.3379 15.0367C95.2159 14.3551 95.0153 13.7238 94.6715 13.2384L93.0394 14.3944C93.1383 14.534 93.2698 14.8337 93.3692 15.389C93.4658 15.9292 93.5195 16.6371 93.5195 17.5273H95.5195ZM94.6849 13.2578C93.9333 12.1417 92.495 11.9033 91.0179 11.9981L91.1461 13.994C92.5076 13.9066 92.9183 14.215 93.026 14.375L94.6849 13.2578ZM92.0582 12.7792L91.9801 12.4276L90.0277 12.8615L90.1058 13.213L92.0582 12.7792ZM91.2886 13.6032C93.3664 12.9861 95.2418 12.6875 96.9219 12.6875V10.6875C95.0082 10.6875 92.9383 11.0269 90.7192 11.6859L91.2886 13.6032ZM95.9946 12.062C96.2152 12.6081 96.332 13.2215 96.332 13.9141H98.332C98.332 12.992 98.1754 12.1211 97.8491 11.313L95.9946 12.062ZM96.332 13.9141V28.4844H98.332V13.9141H96.332ZM96.332 28.4844C96.332 29.6477 96.6025 30.7116 97.3382 31.4671L98.7712 30.0719C98.5433 29.8379 98.332 29.3783 98.332 28.4844H96.332ZM97.3382 31.4671C98.0416 32.1896 99.15 32.5953 100.435 32.8278L100.791 30.8597C99.6287 30.6495 99.0313 30.3391 98.7712 30.0719L97.3382 31.4671ZM99.6646 31.5275L99.5083 31.9963L101.406 32.6287L101.562 32.16L99.6646 31.5275ZM100.595 31.322C99.083 31.1117 97.8702 31 96.9805 31V33C97.7313 33 98.8363 33.0966 100.319 33.303L100.595 31.322ZM96.9805 31C96.0898 31 95.1093 31.1146 94.0451 31.3329L94.447 33.2921C95.4142 33.0937 96.2565 33 96.9805 33V31ZM95.1036 31.798L94.9864 31.6027L93.2714 32.6317L93.3886 32.827L95.1036 31.798ZM94.9521 32.6849C95.1923 32.3366 95.3259 31.9184 95.4045 31.5018C95.4849 31.0759 95.5195 30.5864 95.5195 30.0469H93.5195C93.5195 30.51 93.4891 30.8668 93.4392 31.131C93.3876 31.4045 93.3259 31.5201 93.3057 31.5495L94.9521 32.6849ZM95.5195 30.0469V17.5273H93.5195V30.0469H95.5195ZM93.0284 5.30683C94.1916 4.63337 95.5206 4.06283 97.0212 3.60014L96.4319 1.68892C94.8075 2.18978 93.337 2.81715 92.0263 3.57598L93.0284 5.30683ZM95.7266 2.64453C95.7266 3.83582 95.9207 5.01019 96.3052 6.16388L98.2026 5.53143C97.884 4.57575 97.7266 3.6147 97.7266 2.64453H95.7266ZM96.4432 5.26217L96.1893 5.61373L97.8107 6.78471L98.0646 6.43315L96.4432 5.26217ZM96.937 5.20121C95.5576 5.28833 94.1493 5.67136 92.7177 6.32461L93.5479 8.14414C94.7986 7.57343 95.9685 7.26636 97.063 7.19723L96.937 5.20121ZM94.073 6.89373C93.7782 6.07997 93.5951 5.23643 93.5241 4.36059L91.5306 4.52222C91.6159 5.57346 91.8364 6.5919 92.1926 7.57502L94.073 6.89373ZM102.449 3.79688L102.361 2.80082L101.816 2.84933L101.563 3.33431L102.449 3.79688ZM107.977 3.44531L108.013 4.44467L108.02 4.44435L107.977 3.44531ZM118.953 3.46484L118.909 4.46387L118.915 4.46411L118.953 3.46484ZM125.652 3.83594L126.521 3.3398L126.255 2.87564L125.722 2.83837L125.652 3.83594ZM125.887 4.24609L126.819 4.60687L126.991 4.16309L126.755 3.74995L125.887 4.24609ZM124.051 8.99219L123.761 9.94921L124.649 10.2183L124.983 9.35297L124.051 8.99219ZM123.406 8.79688L122.426 8.60076L122.248 9.4907L123.116 9.7539L123.406 8.79688ZM123.602 7.52734L122.61 7.39937L122.608 7.41358L122.607 7.42784L123.602 7.52734ZM123.562 5.08594L124.543 4.88982L124.392 4.13623L123.625 4.08792L123.562 5.08594ZM119.09 4.85156L119.05 5.85078L119.051 5.85079L119.09 4.85156ZM115.574 4.75391L115.587 3.75399L114.574 3.74117V4.75391H115.574ZM115.711 29.8516L114.739 30.0862L114.743 30.1019L114.747 30.1175L115.711 29.8516ZM117.156 31.4531L116.759 32.3707L116.772 32.3763L116.785 32.3816L117.156 31.4531ZM118.641 31.8438L119.589 32.16L119.957 31.0576L118.812 30.8585L118.641 31.8438ZM118.484 32.3125L118.352 33.3037L119.172 33.413L119.433 32.6287L118.484 32.3125ZM113.777 32.0781L113.664 31.0846L113.661 31.085L113.777 32.0781ZM112.293 32.3125L111.435 32.827L111.795 33.4254L112.48 33.2948L112.293 32.3125ZM112.176 32.1172L111.353 31.5495L110.987 32.0795L111.318 32.6317L112.176 32.1172ZM112.566 4.75391H113.566V3.74066L112.553 3.75399L112.566 4.75391ZM104.539 5.08594L104.478 4.0878L103.695 4.13559L103.555 4.90705L104.539 5.08594ZM104.695 8.79688L104.985 9.7539L105.861 9.48842L105.674 8.59234L104.695 8.79688ZM104.051 8.99219L103.118 9.35297L103.453 10.2183L104.341 9.94921L104.051 8.99219ZM102.215 4.24609L101.328 3.78353L101.119 4.18478L101.282 4.60687L102.215 4.24609ZM102.538 4.79293C104.423 4.62511 106.248 4.50907 108.013 4.44465L107.94 2.44598C106.138 2.51176 104.278 2.6301 102.361 2.80082L102.538 4.79293ZM108.02 4.44435C109.79 4.36685 111.54 4.32812 113.27 4.32812V2.32812C111.51 2.32812 109.731 2.36752 107.933 2.44627L108.02 4.44435ZM113.27 4.32812C114.997 4.32812 116.877 4.37326 118.909 4.46385L118.998 2.46584C116.941 2.37414 115.031 2.32812 113.27 2.32812V4.32812ZM118.915 4.46411C120.947 4.54177 123.169 4.66484 125.583 4.8335L125.722 2.83837C123.292 2.6685 121.048 2.54417 118.991 2.46557L118.915 4.46411ZM124.784 4.33208L125.018 4.74223L126.755 3.74995L126.521 3.3398L124.784 4.33208ZM124.954 3.88532L123.118 8.63141L124.983 9.35297L126.819 4.60687L124.954 3.88532ZM124.341 8.03516L123.696 7.83985L123.116 9.7539L123.761 9.94921L124.341 8.03516ZM124.387 8.99299C124.483 8.51093 124.554 8.05513 124.597 7.62685L122.607 7.42784C122.571 7.78081 122.512 8.17136 122.426 8.60076L124.387 8.99299ZM124.593 7.65532C124.65 7.21568 124.68 6.79493 124.68 6.39453H122.68C122.68 6.69726 122.657 7.03172 122.61 7.39937L124.593 7.65532ZM124.68 6.39453C124.68 5.86008 124.636 5.35676 124.543 4.88982L122.582 5.28205C122.645 5.59636 122.68 5.96544 122.68 6.39453H124.68ZM123.625 4.08792C121.966 3.98337 120.467 3.90479 119.129 3.85233L119.051 5.85079C120.369 5.9025 121.852 5.98017 123.5 6.08396L123.625 4.08792ZM119.129 3.85235C117.808 3.8 116.627 3.76715 115.587 3.75399L115.562 5.75383C116.579 5.76671 117.742 5.79896 119.05 5.85078L119.129 3.85235ZM114.574 4.75391V28.4844H116.574V4.75391H114.574ZM114.574 28.4844C114.574 29.0701 114.624 29.6092 114.739 30.0862L116.683 29.6169C116.616 29.3387 116.574 28.9664 116.574 28.4844H114.574ZM114.747 30.1175C114.887 30.6269 115.126 31.0887 115.475 31.4776L116.962 30.1396C116.843 30.0076 116.743 29.8314 116.675 29.5856L114.747 30.1175ZM115.475 31.4776C115.824 31.8651 116.264 32.1564 116.759 32.3707L117.554 30.5356C117.267 30.4113 117.082 30.2729 116.962 30.1396L115.475 31.4776ZM116.785 32.3816C117.262 32.5723 117.829 32.7177 118.469 32.829L118.812 30.8585C118.254 30.7615 117.832 30.6465 117.528 30.5246L116.785 32.3816ZM117.692 31.5275L117.536 31.9963L119.433 32.6287L119.589 32.16L117.692 31.5275ZM118.617 31.3213C117.826 31.2159 117.134 31.1359 116.544 31.0822L116.363 33.074C116.918 33.1245 117.58 33.2008 118.352 33.3037L118.617 31.3213ZM116.544 31.0822C115.953 31.0286 115.439 31 115.008 31V33C115.358 33 115.807 33.0235 116.363 33.074L116.544 31.0822ZM115.008 31C114.597 31 114.148 31.0292 113.664 31.0846L113.891 33.0717C114.318 33.0228 114.689 33 115.008 33V31ZM113.661 31.085C113.189 31.1404 112.671 31.2226 112.106 31.3302L112.48 33.2948C113.009 33.1941 113.48 33.12 113.894 33.0713L113.661 31.085ZM113.15 31.798L113.033 31.6027L111.318 32.6317L111.435 32.827L113.15 31.798ZM112.999 32.6849C113.239 32.3366 113.373 31.9184 113.451 31.5018C113.532 31.0759 113.566 30.5864 113.566 30.0469H111.566C111.566 30.51 111.536 30.8668 111.486 31.131C111.434 31.4045 111.373 31.5201 111.353 31.5495L112.999 32.6849ZM113.566 30.0469V4.75391H111.566V30.0469H113.566ZM112.553 3.75399C111.553 3.76716 110.385 3.80001 109.051 3.85233L109.129 5.85079C110.451 5.79894 111.601 5.7667 112.58 5.75382L112.553 3.75399ZM109.051 3.85233C107.714 3.90477 106.189 3.98331 104.478 4.0878L104.6 6.08408C106.3 5.98024 107.81 5.90253 109.129 5.85079L109.051 3.85233ZM103.555 4.90705C103.465 5.40144 103.422 5.91743 103.422 6.45312H105.422C105.422 6.02528 105.457 5.62981 105.523 5.26482L103.555 4.90705ZM103.422 6.45312C103.422 7.22845 103.524 8.08009 103.716 9.00141L105.674 8.59234C105.502 7.76887 105.422 7.058 105.422 6.45312H103.422ZM104.405 7.83985L103.761 8.03516L104.341 9.94921L104.985 9.7539L104.405 7.83985ZM104.983 8.63141L103.147 3.88532L101.282 4.60687L103.118 9.35297L104.983 8.63141ZM103.101 4.70866L103.336 4.25944L101.563 3.33431L101.328 3.78353L103.101 4.70866ZM143.426 30.418L142.52 30.8409L142.537 30.8783L142.558 30.9141L143.426 30.418ZM143.777 30.8867L143.07 31.5938L143.106 31.6291L143.144 31.6607L143.777 30.8867ZM145.887 31.7656L146.835 32.0819L147.162 31.1007L146.171 30.8068L145.887 31.7656ZM145.73 32.2344L145.546 33.2172L146.403 33.378L146.679 32.5506L145.73 32.2344ZM140.203 32.3125L139.346 32.827L139.711 33.4361L140.407 33.2916L140.203 32.3125ZM140.086 32.1172L139.276 31.5307L138.889 32.0655L139.228 32.6317L140.086 32.1172ZM140.496 28.7578H141.496L139.615 28.2843L140.496 28.7578ZM137.449 31.6875L136.976 30.8068L136.972 30.8086L137.449 31.6875ZM129.656 31.6484L129.005 32.4077L129.011 32.4127L129.017 32.4175L129.656 31.6484ZM128.895 25.5547L128.012 25.0841L128.009 25.0896L128.895 25.5547ZM130.535 23.582L131.154 24.3673L131.156 24.3658L130.535 23.582ZM133.172 22.1367L132.812 21.2037L132.808 21.2051L133.172 22.1367ZM136.492 21.1211L136.271 20.146L136.268 20.1465L136.492 21.1211ZM140.496 20.3984L140.64 21.388L141.496 21.2636V20.3984H140.496ZM132.898 13.9141L133.217 14.8618L133.223 14.8599L132.898 13.9141ZM129.578 15.6719L128.825 16.3292L129.459 17.0565L130.208 16.4483L129.578 15.6719ZM128.777 14.7539L128.156 13.9704L127.335 14.6216L128.024 15.4113L128.777 14.7539ZM132.801 12.5273L132.45 11.591L132.447 11.592L132.801 12.5273ZM138.875 11.8242L138.661 12.801L138.674 12.804L138.688 12.8066L138.875 11.8242ZM140.516 12.4297L140.035 13.3068L140.048 13.3135L140.06 13.3199L140.516 12.4297ZM141.941 13.543L141.182 14.1938L141.192 14.2054L141.202 14.2167L141.941 13.543ZM142.918 15.3398L141.968 15.6512L141.969 15.6561L142.918 15.3398ZM137.762 30.2031L138.276 31.0606L138.283 31.0566L137.762 30.2031ZM140.496 27.3906L141.382 27.8542L141.496 27.6364V27.3906H140.496ZM140.496 21.4336H141.496V20.2787L140.353 20.4439L140.496 21.4336ZM133.348 23.6602L133.92 24.4804L133.921 24.4794L133.348 23.6602ZM131.961 30.5352L131.227 31.215L131.236 31.2239L131.961 30.5352ZM142.289 29.793C142.289 30.1564 142.365 30.5095 142.52 30.8409L144.332 29.9951C144.304 29.9358 144.289 29.8723 144.289 29.793H142.289ZM142.558 30.9141C142.7 31.163 142.869 31.3927 143.07 31.5938L144.484 30.1796C144.425 30.1203 144.36 30.0375 144.294 29.9218L142.558 30.9141ZM143.144 31.6607C143.381 31.8549 143.67 32.0142 143.972 32.1502L144.793 30.3264C144.574 30.2279 144.46 30.1529 144.411 30.1128L143.144 31.6607ZM143.972 32.1502C144.253 32.2764 144.513 32.3815 144.75 32.4604L145.383 30.563C145.229 30.5118 145.034 30.4346 144.793 30.3264L143.972 32.1502ZM144.75 32.4604C144.961 32.5308 145.247 32.6191 145.603 32.7244L146.171 30.8068C145.823 30.7038 145.562 30.6229 145.383 30.563L144.75 32.4604ZM144.938 31.4494L144.782 31.9181L146.679 32.5506L146.835 32.0819L144.938 31.4494ZM145.915 31.2515C145.023 31.0842 144.134 31 143.25 31V33C144.006 33 144.772 33.072 145.546 33.2172L145.915 31.2515ZM143.25 31C142.153 31 141.07 31.1111 140 31.3334L140.407 33.2916C141.342 33.0972 142.289 33 143.25 33V31ZM141.061 31.798L140.943 31.6027L139.228 32.6317L139.346 32.827L141.061 31.798ZM140.896 32.7037C141.372 32.0464 141.496 31.0654 141.496 30.0469H139.496C139.496 31.0335 139.347 31.4328 139.276 31.5307L140.896 32.7037ZM141.496 30.0469V28.7578H139.496V30.0469H141.496ZM139.615 28.2843C139.07 29.2992 138.208 30.1441 136.976 30.8068L137.923 32.5682C139.451 31.7466 140.62 30.6383 141.377 29.2313L139.615 28.2843ZM136.972 30.8086C135.736 31.4799 134.511 31.8008 133.289 31.8008V33.8008C134.879 33.8008 136.429 33.3794 137.926 32.5664L136.972 30.8086ZM133.289 31.8008C131.966 31.8008 131 31.4645 130.295 30.8793L129.017 32.4175C130.162 33.3688 131.617 33.8008 133.289 33.8008V31.8008ZM130.307 30.8892C129.674 30.3468 129.289 29.5076 129.289 28.1914H127.289C127.289 29.9221 127.815 31.3875 129.005 32.4077L130.307 30.8892ZM129.289 28.1914C129.289 27.3409 129.461 26.6256 129.78 26.0198L128.009 25.0896C127.52 26.0203 127.289 27.0627 127.289 28.1914H129.289ZM129.777 26.0253C130.13 25.3626 130.589 24.8132 131.154 24.3673L129.916 22.7968C129.127 23.4185 128.492 24.1843 128.012 25.0841L129.777 26.0253ZM131.156 24.3658C131.749 23.8961 132.534 23.4591 133.535 23.0683L132.808 21.2051C131.674 21.6477 130.702 22.1742 129.914 22.7983L131.156 24.3658ZM133.532 23.0698C134.568 22.6702 135.629 22.3455 136.716 22.0957L136.268 20.1465C135.089 20.4175 133.937 20.7699 132.812 21.2037L133.532 23.0698ZM136.714 22.0962C137.827 21.8431 139.135 21.6067 140.64 21.388L140.352 19.4088C138.81 19.6329 137.449 19.8782 136.271 20.146L136.714 22.0962ZM141.496 20.3984V18.6016H139.496V20.3984H141.496ZM141.496 18.6016C141.496 16.7067 141.127 15.101 140.222 13.9538C139.281 12.7614 137.896 12.2305 136.258 12.2305V14.2305C137.445 14.2305 138.18 14.5947 138.651 15.1927C139.159 15.8358 139.496 16.9157 139.496 18.6016H141.496ZM136.258 12.2305C135.193 12.2305 133.956 12.4938 132.574 12.9682L133.223 14.8599C134.497 14.4228 135.5 14.2305 136.258 14.2305V12.2305ZM132.579 12.9663C131.173 13.4397 129.955 14.0777 128.948 14.8954L130.208 16.4483C130.998 15.8077 131.994 15.2738 133.217 14.8618L132.579 12.9663ZM130.332 15.0145L129.531 14.0965L128.024 15.4113L128.825 16.3292L130.332 15.0145ZM129.399 15.5374C130.44 14.7117 131.688 14.0174 133.154 13.4627L132.447 11.592C130.815 12.2092 129.38 12.9993 128.156 13.9704L129.399 15.5374ZM133.152 13.4637C134.627 12.9104 135.966 12.6484 137.176 12.6484V10.6484C135.677 10.6484 134.099 10.9724 132.45 11.591L133.152 13.4637ZM137.176 12.6484C137.709 12.6484 138.204 12.7006 138.661 12.801L139.089 10.8475C138.479 10.7134 137.84 10.6484 137.176 10.6484V12.6484ZM138.688 12.8066C139.121 12.889 139.569 13.0515 140.035 13.3068L140.996 11.5526C140.368 11.2089 139.723 10.9678 139.062 10.8419L138.688 12.8066ZM140.06 13.3199C140.51 13.55 140.88 13.8416 141.182 14.1938L142.701 12.8922C142.221 12.3329 141.641 11.8823 140.971 11.5394L140.06 13.3199ZM141.202 14.2167C141.485 14.5267 141.751 14.9886 141.968 15.6512L143.868 15.0285C143.591 14.1807 143.205 13.4446 142.68 12.8692L141.202 14.2167ZM141.969 15.6561C142.176 16.2771 142.289 17.0136 142.289 17.8789H144.289C144.289 16.8432 144.154 15.887 143.867 15.0236L141.969 15.6561ZM142.289 17.8789V29.793H144.289V17.8789H142.289ZM134.207 32.3164C135.564 32.3164 136.926 31.8709 138.276 31.0606L137.247 29.3456C136.124 30.0197 135.115 30.3164 134.207 30.3164V32.3164ZM138.283 31.0566C139.651 30.2211 140.7 29.1571 141.382 27.8542L139.61 26.927C139.12 27.8637 138.346 28.6748 137.241 29.3496L138.283 31.0566ZM141.496 27.3906V21.4336H139.496V27.3906H141.496ZM140.353 20.4439C136.983 20.931 134.406 21.6989 132.774 22.8409L133.921 24.4794C135.154 23.6162 137.343 22.8998 140.639 22.4233L140.353 20.4439ZM132.776 22.8399C131.059 24.0371 130.219 25.8059 130.219 27.9961H132.219C132.219 26.3842 132.798 25.2624 133.92 24.4804L132.776 22.8399ZM130.219 27.9961C130.219 29.2647 130.484 30.4131 131.228 31.2149L132.694 29.8554C132.448 29.5895 132.219 29.0452 132.219 27.9961H130.219ZM131.236 31.2239C131.984 32.0117 133.041 32.3164 134.207 32.3164V30.3164C133.367 30.3164 132.927 30.1002 132.686 29.8464L131.236 31.2239ZM162.586 29.8711L161.713 29.384L162.586 29.8711ZM161.062 31.5508L161.629 32.3748L161.633 32.3724L161.062 31.5508ZM158.855 32.4883L158.631 31.5139L158.622 31.5159L158.613 31.5181L158.855 32.4883ZM149.91 31.3945L148.949 31.1179L148.715 31.9324L149.48 32.2972L149.91 31.3945ZM150.652 29.0117L151.599 29.333L151.601 29.3279L150.652 29.0117ZM151.414 26.9609L151.74 26.0156L150.852 25.7094L150.491 26.5763L151.414 26.9609ZM151.98 27.1562L152.96 27.3566L153.136 26.4969L152.306 26.2109L151.98 27.1562ZM151.863 30.2422L150.867 30.3327L150.917 30.8792L151.405 31.1308L151.863 30.2422ZM152.996 30.7891L152.59 31.7029L152.604 31.7092L152.619 31.7152L152.996 30.7891ZM154.051 31.1602L153.767 32.119L153.783 32.1238L153.8 32.1282L154.051 31.1602ZM155.184 31.375L155.056 32.3668L155.071 32.3688L155.087 32.3704L155.184 31.375ZM159.773 30.75L160.427 31.5068L160.43 31.5046L159.773 30.75ZM160.398 29.7344L161.361 30.0051L161.363 29.9975L160.398 29.7344ZM160.32 26.8047L159.381 27.1464L159.387 27.1639L159.394 27.1811L160.32 26.8047ZM159.48 25.5352L158.751 26.2191L158.757 26.2251L158.762 26.231L159.48 25.5352ZM157.898 24.2461L157.325 25.0653L157.334 25.0718L157.344 25.0781L157.898 24.2461ZM155.457 22.7617L154.946 23.6211L154.961 23.6304L154.977 23.6392L155.457 22.7617ZM151.883 19.9688L151.125 20.6213L151.13 20.6265L151.883 19.9688ZM151.199 14.7148L152.079 15.19L152.083 15.1827L151.199 14.7148ZM152.625 13.0547L153.219 13.8589L153.222 13.8567L152.625 13.0547ZM154.754 12.0391L155.018 13.0035L155.026 13.0015L155.033 12.9994L154.754 12.0391ZM158.738 11.7852L158.608 12.7766L158.611 12.777L158.738 11.7852ZM160.203 12.0781L159.935 13.0416L159.948 13.0451L159.961 13.0483L160.203 12.0781ZM161.512 12.5273L161.1 13.4387L161.118 13.4466L161.135 13.4538L161.512 12.5273ZM162.586 13.1133L163.557 13.3506L163.715 12.7045L163.18 12.3091L162.586 13.1133ZM161.062 17.6055L160.708 18.5405L161.577 18.8703L161.969 18.0268L161.062 17.6055ZM160.496 17.3906L159.498 17.3218L159.447 18.0624L160.141 18.3256L160.496 17.3906ZM160.555 16.0039L161.554 16.0277L161.554 16.0272L160.555 16.0039ZM160.574 14.0312H161.574V13.5448L161.192 13.2445L160.574 14.0312ZM155.164 13.1719L154.992 12.1868L154.987 12.1876L155.164 13.1719ZM153.25 14.5586L152.311 14.2143L152.308 14.2234L152.305 14.2326L153.25 14.5586ZM153.23 17.2148L152.275 17.5113L152.278 17.5209L153.23 17.2148ZM153.855 18.3086L153.083 18.9433L153.088 18.9502L153.094 18.9571L153.855 18.3086ZM155.066 19.4023L154.47 20.2048L154.481 20.2134L154.493 20.2216L155.066 19.4023ZM157.059 20.5938L157.538 19.7161L157.528 19.711L157.059 20.5938ZM160.125 22.4102L159.57 23.2422L159.577 23.2464L160.125 22.4102ZM161.98 23.9531L161.227 24.6103L161.236 24.6206L161.245 24.6306L161.98 23.9531ZM162.898 25.5156L161.937 25.7903L161.94 25.8009L161.943 25.8113L162.898 25.5156ZM162.152 27.4492C162.152 28.2517 161.991 28.8841 161.713 29.384L163.459 30.3582C163.936 29.504 164.152 28.5217 164.152 27.4492H162.152ZM161.713 29.384C161.409 29.9277 161.005 30.3733 160.492 30.7292L161.633 32.3724C162.396 31.8429 163.007 31.1686 163.459 30.3582L161.713 29.384ZM160.496 30.7267C159.988 31.0758 159.372 31.3427 158.631 31.5139L159.08 33.4627C160.031 33.2432 160.887 32.8852 161.629 32.3748L160.496 30.7267ZM158.613 31.5181C157.865 31.7052 157.068 31.8008 156.219 31.8008V33.8008C157.219 33.8008 158.18 33.688 159.098 33.4584L158.613 31.5181ZM156.219 31.8008C154.124 31.8008 152.168 31.3635 150.341 30.4919L149.48 32.2972C151.584 33.3006 153.835 33.8008 156.219 33.8008V31.8008ZM150.871 31.6712C151.115 30.8245 151.358 30.0453 151.599 29.333L149.705 28.6904C149.452 29.4365 149.2 30.2458 148.949 31.1179L150.871 31.6712ZM151.601 29.3279C151.842 28.6054 152.087 27.9449 152.337 27.3456L150.491 26.5763C150.22 27.2269 149.958 27.9337 149.704 28.6955L151.601 29.3279ZM151.088 27.9063L151.654 28.1016L152.306 26.2109L151.74 26.0156L151.088 27.9063ZM151.001 26.9559C150.871 27.5885 150.805 28.2092 150.805 28.8164H152.805C152.805 28.3559 152.855 27.8698 152.96 27.3566L151.001 26.9559ZM150.805 28.8164C150.805 29.3615 150.825 29.8675 150.867 30.3327L152.859 30.1517C152.823 29.7575 152.805 29.313 152.805 28.8164H150.805ZM151.405 31.1308C151.823 31.3465 152.218 31.5375 152.59 31.7029L153.402 29.8753C153.071 29.7281 152.711 29.5545 152.322 29.3536L151.405 31.1308ZM152.619 31.7152C153 31.8704 153.382 32.0051 153.767 32.119L154.335 30.2014C154.016 30.1069 153.696 29.9942 153.373 29.863L152.619 31.7152ZM153.8 32.1282C154.196 32.231 154.615 32.31 155.056 32.3668L155.312 30.3832C154.945 30.3359 154.608 30.2717 154.302 30.1922L153.8 32.1282ZM155.087 32.3704C155.531 32.4133 156.033 32.4336 156.59 32.4336V30.4336C156.079 30.4336 155.643 30.4148 155.28 30.3796L155.087 32.3704ZM156.59 32.4336C157.421 32.4336 158.15 32.3797 158.759 32.2579L158.366 30.2968C157.933 30.3834 157.347 30.4336 156.59 30.4336V32.4336ZM158.759 32.2579C159.384 32.1328 159.968 31.9035 160.427 31.5068L159.12 29.9932C159.006 30.0913 158.783 30.2135 158.366 30.2968L158.759 32.2579ZM160.43 31.5046C160.89 31.1047 161.196 30.5918 161.361 30.0051L159.436 29.4636C159.366 29.7103 159.256 29.8745 159.117 29.9954L160.43 31.5046ZM161.363 29.9975C161.511 29.4553 161.574 28.8335 161.574 28.1523H159.574C159.574 28.7212 159.52 29.154 159.434 29.4713L161.363 29.9975ZM161.574 28.1523C161.574 27.5508 161.468 26.9728 161.247 26.4283L159.394 27.1811C159.511 27.4699 159.574 27.7903 159.574 28.1523H161.574ZM161.26 26.4629C161.045 25.8705 160.675 25.3309 160.199 24.8394L158.762 26.231C159.093 26.5727 159.283 26.8795 159.381 27.1464L161.26 26.4629ZM160.21 24.8512C159.751 24.3615 159.158 23.8839 158.453 23.414L157.344 25.0781C157.967 25.4938 158.429 25.8755 158.751 26.2191L160.21 24.8512ZM158.472 23.4269C157.781 22.9435 156.934 22.4294 155.937 21.8843L154.977 23.6392C155.933 24.1618 156.713 24.6372 157.325 25.0653L158.472 23.4269ZM155.968 21.9024C154.443 20.9949 153.349 20.127 152.636 19.311L151.13 20.6265C152.032 21.6594 153.32 22.6535 154.946 23.6211L155.968 21.9024ZM152.641 19.3162C151.963 18.5297 151.672 17.7518 151.672 16.9609H149.672C149.672 18.3055 150.188 19.5328 151.125 20.6213L152.641 19.3162ZM151.672 16.9609C151.672 16.2564 151.817 15.6752 152.079 15.19L150.319 14.2397C149.878 15.0565 149.672 15.9728 149.672 16.9609H151.672ZM152.083 15.1827C152.365 14.6498 152.742 14.2117 153.219 13.8589L152.031 12.2505C151.31 12.783 150.736 13.4518 150.315 14.247L152.083 15.1827ZM153.222 13.8567C153.725 13.4823 154.319 13.1951 155.018 13.0035L154.489 11.0747C153.574 11.3257 152.749 11.7156 152.028 12.2526L153.222 13.8567ZM155.033 12.9994C155.743 12.7931 156.502 12.6875 157.312 12.6875V10.6875C156.326 10.6875 155.379 10.8163 154.475 11.0787L155.033 12.9994ZM157.312 12.6875C157.721 12.6875 158.152 12.7167 158.608 12.7766L158.869 10.7937C158.335 10.7234 157.816 10.6875 157.312 10.6875V12.6875ZM158.611 12.777C159.074 12.8364 159.515 12.9249 159.935 13.0416L160.471 11.1146C159.954 10.9709 159.418 10.8641 158.865 10.7933L158.611 12.777ZM159.961 13.0483C160.377 13.1523 160.756 13.2831 161.1 13.4387L161.923 11.616C161.461 11.407 160.967 11.2384 160.446 11.108L159.961 13.0483ZM161.135 13.4538C161.49 13.5979 161.772 13.7548 161.992 13.9175L163.18 12.3091C162.801 12.029 162.367 11.7954 161.888 11.6009L161.135 13.4538ZM161.615 12.876C161.21 14.5325 160.722 15.966 160.156 17.1841L161.969 18.0268C162.601 16.6668 163.129 15.1055 163.557 13.3506L161.615 12.876ZM161.417 16.6705L160.851 16.4556L160.141 18.3256L160.708 18.5405L161.417 16.6705ZM161.494 17.4594C161.521 17.0619 161.541 16.5836 161.554 16.0277L159.555 15.9801C159.542 16.5179 159.523 16.9642 159.498 17.3218L161.494 17.4594ZM161.554 16.0272C161.568 15.4574 161.574 14.7917 161.574 14.0312H159.574C159.574 14.7812 159.568 15.4306 159.555 15.9807L161.554 16.0272ZM161.192 13.2445C160.111 12.3971 158.694 12.0352 157.059 12.0352V14.0352C158.418 14.0352 159.344 14.3373 159.957 14.818L161.192 13.2445ZM157.059 12.0352C156.28 12.0352 155.587 12.0827 154.992 12.1868L155.336 14.1569C155.783 14.0788 156.353 14.0352 157.059 14.0352V12.0352ZM154.987 12.1876C154.383 12.2961 153.822 12.4943 153.356 12.8246L154.512 14.4566C154.67 14.3443 154.93 14.2299 155.341 14.1561L154.987 12.1876ZM153.356 12.8246C152.863 13.1732 152.518 13.6508 152.311 14.2143L154.189 14.9028C154.269 14.6852 154.379 14.5507 154.512 14.4566L153.356 12.8246ZM152.305 14.2326C152.126 14.7518 152.055 15.3539 152.055 16.0039H154.055C154.055 15.482 154.114 15.1206 154.195 14.8846L152.305 14.2326ZM152.055 16.0039C152.055 16.5254 152.126 17.0297 152.275 17.5112L154.186 16.9184C154.101 16.6448 154.055 16.3418 154.055 16.0039H152.055ZM152.278 17.5209C152.442 18.0296 152.721 18.5033 153.083 18.9433L154.628 17.6739C154.391 17.3847 154.253 17.1293 154.182 16.9088L152.278 17.5209ZM153.094 18.9571C153.457 19.3827 153.922 19.7975 154.47 20.2048L155.663 18.5999C155.195 18.252 154.853 17.9376 154.617 17.6601L153.094 18.9571ZM154.493 20.2216C155.058 20.617 155.76 21.0352 156.589 21.4765L157.528 19.711C156.743 19.2929 156.117 18.9168 155.64 18.5831L154.493 20.2216ZM156.579 21.4713C157.828 22.1539 158.823 22.7438 159.57 23.2422L160.68 21.5781C159.865 21.0349 158.815 20.4138 157.538 19.7162L156.579 21.4713ZM159.577 23.2464C160.323 23.7359 160.863 24.193 161.227 24.6103L162.734 23.296C162.213 22.6977 161.515 22.1261 160.673 21.5739L159.577 23.2464ZM161.245 24.6306C161.614 25.0315 161.831 25.4186 161.937 25.7903L163.86 25.2409C163.654 24.5189 163.258 23.8644 162.716 23.2756L161.245 24.6306ZM161.943 25.8113C162.076 26.2389 162.152 26.7793 162.152 27.4492H164.152C164.152 26.6348 164.06 25.8861 163.854 25.2199L161.943 25.8113ZM169.207 2.9375L168.378 3.4961L168.384 3.50589L168.391 3.51552L169.207 2.9375ZM166.434 2.11719L165.457 2.33412L165.643 3.17001L166.498 3.11513L166.434 2.11719ZM166.355 1.76562L166.071 0.807003L165.177 1.07242L165.379 1.98256L166.355 1.76562ZM172.273 0.808594L173.201 0.434131L172.948 -0.191406H172.273V0.808594ZM175.965 31.8438L176.914 32.16L177.278 31.0651L176.143 30.8597L175.965 31.8438ZM175.809 32.3125L175.671 33.303L176.494 33.4175L176.757 32.6287L175.809 32.3125ZM169.598 32.3125L168.74 32.827L169.105 33.4345L169.799 33.2921L169.598 32.3125ZM169.48 32.1172L168.657 31.5495L168.292 32.0795L168.623 32.6317L169.48 32.1172ZM181.473 31.082L180.676 31.687L180.687 31.7013L180.699 31.7153L181.473 31.082ZM174.246 21.5703H173.246V21.9071L173.45 22.1753L174.246 21.5703ZM174.246 21.1211L173.536 20.4168L173.246 20.7092V21.1211H174.246ZM181.473 13.8359L182.183 14.5402L182.199 14.5236L182.215 14.5062L181.473 13.8359ZM181.062 12.918L180.74 13.8646L180.752 13.8686L181.062 12.918ZM178.602 12.7617L177.629 12.9951L177.83 13.8312L178.687 13.7581L178.602 12.7617ZM178.484 12.2734L178.285 11.2935L177.27 11.4996L177.512 12.5068L178.484 12.2734ZM184.285 11.6875L185.168 11.2169L184.878 10.6732L184.261 10.6878L184.285 11.6875ZM184.598 12.2734L185.305 12.9805L185.829 12.4566L185.48 11.8028L184.598 12.2734ZM176.473 20.3984L175.766 19.6913L175.134 20.3229L175.691 21.0216L176.473 20.3984ZM184.93 30.5547L184.338 31.3611L184.344 31.3654L184.35 31.3696L184.93 30.5547ZM187.117 31.4727L188.115 31.537L188.17 30.6836L187.336 30.4968L187.117 31.4727ZM187.078 32.0781L187.005 33.0755L188.011 33.1491L188.076 32.1425L187.078 32.0781ZM182.234 32.3125L181.738 33.1807L182.104 33.3898L182.509 33.274L182.234 32.3125ZM181.961 32.1562L180.965 32.0657L180.907 32.7057L181.465 33.0245L181.961 32.1562ZM170.871 6.64844C170.871 5.68972 170.814 4.85464 170.689 4.15784C170.567 3.47618 170.367 2.84492 170.023 2.35948L168.391 3.51552C168.49 3.65508 168.621 3.95481 168.721 4.51013C168.817 5.05031 168.871 5.7582 168.871 6.64844H170.871ZM170.036 2.3789C169.285 1.26283 167.847 1.02438 166.37 1.11924L166.498 3.11513C167.859 3.0277 168.27 3.33613 168.378 3.4961L170.036 2.3789ZM167.41 1.90026L167.332 1.54869L165.379 1.98256L165.457 2.33412L167.41 1.90026ZM166.64 2.72425C168.718 2.1072 170.593 1.80859 172.273 1.80859V-0.191406C170.36 -0.191406 168.29 0.148012 166.071 0.807003L166.64 2.72425ZM171.346 1.18306C171.567 1.72918 171.684 2.34264 171.684 3.03516H173.684C173.684 2.11309 173.527 1.24217 173.201 0.434131L171.346 1.18306ZM171.684 3.03516V28.4844H173.684V3.03516H171.684ZM171.684 28.4844C171.684 29.6477 171.954 30.7116 172.69 31.4671L174.123 30.0719C173.895 29.8379 173.684 29.3783 173.684 28.4844H171.684ZM172.69 31.4671C173.393 32.1896 174.502 32.5953 175.787 32.8278L176.143 30.8597C174.98 30.6495 174.383 30.3391 174.123 30.0719L172.69 31.4671ZM175.016 31.5275L174.86 31.9963L176.757 32.6287L176.914 32.16L175.016 31.5275ZM175.946 31.322C174.429 31.1109 173.173 31 172.195 31V33C173.041 33 174.194 33.0974 175.671 33.303L175.946 31.322ZM172.195 31C171.389 31 170.452 31.1165 169.397 31.3329L169.799 33.2921C170.775 33.0919 171.569 33 172.195 33V31ZM170.455 31.798L170.338 31.6027L168.623 32.6317L168.74 32.827L170.455 31.798ZM170.304 32.6849C170.544 32.3366 170.678 31.9184 170.756 31.5018C170.836 31.0759 170.871 30.5864 170.871 30.0469H168.871C168.871 30.51 168.841 30.8668 168.791 31.131C168.739 31.4045 168.677 31.5201 168.657 31.5495L170.304 32.6849ZM170.871 30.0469V6.64844H168.871V30.0469H170.871ZM182.269 30.4771L175.042 20.9654L173.45 22.1753L180.676 31.687L182.269 30.4771ZM175.246 21.5703V21.1211H173.246V21.5703H175.246ZM174.956 21.8253L182.183 14.5402L180.763 13.1317L173.536 20.4168L174.956 21.8253ZM182.215 14.5062C182.48 14.2124 182.874 13.6062 182.557 12.8958C182.3 12.3222 181.724 12.0818 181.373 11.9674L180.752 13.8686C180.86 13.9039 180.897 13.928 180.894 13.9257C180.892 13.9242 180.798 13.8629 180.731 13.7117C180.653 13.5375 180.662 13.3634 180.7 13.2458C180.73 13.1522 180.767 13.1255 180.731 13.1657L182.215 14.5062ZM181.385 11.9715C180.617 11.7094 179.632 11.6701 178.517 11.7653L178.687 13.7581C179.706 13.671 180.363 13.7359 180.74 13.8645L181.385 11.9715ZM179.574 12.5283L179.457 12.0401L177.512 12.5068L177.629 12.9951L179.574 12.5283ZM178.683 13.2534C180.278 12.9295 182.151 12.7383 184.309 12.6872L184.261 10.6878C182.018 10.7409 180.024 10.9403 178.285 11.2935L178.683 13.2534ZM183.403 12.1581L183.715 12.744L185.48 11.8028L185.168 11.2169L183.403 12.1581ZM183.891 11.5663L175.766 19.6913L177.18 21.1055L185.305 12.9805L183.891 11.5663ZM175.691 21.0216C178.218 24.1939 180.191 26.6322 181.608 28.3333C182.315 29.1831 182.889 29.8547 183.325 30.3441C183.731 30.7983 184.09 31.1789 184.338 31.3611L185.521 29.7483C185.528 29.7531 185.513 29.7429 185.472 29.7049C185.434 29.6697 185.384 29.6207 185.32 29.5554C185.192 29.4246 185.025 29.2449 184.818 29.0124C184.403 28.5479 183.846 27.8963 183.144 27.0535C181.742 25.3691 179.779 22.9441 177.255 19.7753L175.691 21.0216ZM184.35 31.3696C185.067 31.8797 185.927 32.231 186.899 32.4485L187.336 30.4968C186.563 30.3237 185.964 30.063 185.509 29.7397L184.35 31.3696ZM186.119 31.4083L186.08 32.0137L188.076 32.1425L188.115 31.537L186.119 31.4083ZM187.151 31.0808C184.983 30.9222 183.226 30.9891 181.96 31.351L182.509 33.274C183.43 33.0109 184.902 32.9216 187.005 33.0755L187.151 31.0808ZM182.731 31.4443L182.457 31.288L181.465 33.0245L181.738 33.1807L182.731 31.4443ZM182.957 32.2468C183.021 31.5438 182.628 30.9151 182.247 30.4488L180.699 31.7153C180.84 31.8883 180.914 32.0112 180.948 32.0867C180.983 32.1633 180.958 32.1472 180.965 32.0657L182.957 32.2468Z" fill="black" fill-opacity="0.5"/>
</svg>
